<?xml version="1.0" encoding="utf-8"?>
<!-- Generator: Adobe Illustrator 15.0.0, SVG Export Plug-In . SVG Version: 6.00 Build 0)  -->
<!DOCTYPE svg PUBLIC "-//W3C//DTD SVG 1.1//EN" "http://www.w3.org/Graphics/SVG/1.1/DTD/svg11.dtd">
<svg version="1.1" id="Layer_2" xmlns="http://www.w3.org/2000/svg" xmlns:xlink="http://www.w3.org/1999/xlink" x="0px" y="0px"
	 width="360px" height="360px" viewBox="0 0 360 360" enable-background="new 0 0 360 360" xml:space="preserve">
<path fill="#FFFFFF" d="M296.196,171.518l-73.613-73.615c-4.633-4.631-12.14-4.632-16.771,0c-4.632,4.631-4.632,12.14,0,16.771
	l65.314,65.314l-65.607,65.607c-4.632,4.632-4.632,12.14,0,16.771c2.314,2.315,5.35,3.474,8.385,3.474s6.069-1.158,8.385-3.474
	l73.613-73.614c0.675-0.674,1.239-1.413,1.716-2.191C300.758,181.945,300.289,175.61,296.196,171.518z"/>
<path fill="#FFFFFF" d="M63.804,188.751l73.614,73.615c4.632,4.631,12.14,4.632,16.77,0c4.631-4.631,4.631-12.14,0-16.771
	l-65.315-65.315l65.608-65.607c4.631-4.631,4.631-12.139,0-16.771c-2.315-2.315-5.35-3.473-8.385-3.473
	c-3.035,0-6.07,1.158-8.385,3.473l-73.614,73.614c-0.674,0.674-1.238,1.414-1.716,2.192
	C59.242,178.324,59.711,184.659,63.804,188.751z"/>
</svg>
