<?xml version="1.0" encoding="utf-8"?>
<!-- Generator: Adobe Illustrator 15.0.0, SVG Export Plug-In . SVG Version: 6.00 Build 0)  -->
<!DOCTYPE svg PUBLIC "-//W3C//DTD SVG 1.1//EN" "http://www.w3.org/Graphics/SVG/1.1/DTD/svg11.dtd">
<svg version="1.1" id="Layer_2_copy" xmlns="http://www.w3.org/2000/svg" xmlns:xlink="http://www.w3.org/1999/xlink" x="0px"
	 y="0px" width="360px" height="360px" viewBox="0 0 360 360" enable-background="new 0 0 360 360" xml:space="preserve">
<path fill="#FFFFFF" d="M173.124,171.518L99.511,97.903c-4.632-4.631-12.14-4.632-16.771,0c-4.631,4.631-4.631,12.14,0,16.771
	l65.315,65.314l-65.608,65.607c-4.631,4.632-4.631,12.14,0,16.771c2.315,2.315,5.35,3.474,8.385,3.474s6.07-1.158,8.385-3.474
	l73.613-73.614c0.674-0.674,1.238-1.413,1.715-2.191C177.686,181.945,177.217,175.61,173.124,171.518z"/>
<path fill="#FFFFFF" d="M290.955,247.555c-2.146-2.146-5.111-3.473-8.386-3.473h-68.1l0,0h-23.306
	c-6.549,0-11.858,5.309-11.858,11.858c0,3.273,1.327,6.238,3.473,8.384c2.146,2.146,5.111,3.475,8.385,3.475h68.101l0,0h23.305
	c6.55,0,11.858-5.309,11.858-11.858C294.428,252.665,293.101,249.701,290.955,247.555z"/>
</svg>
